<svg xmlns="http://www.w3.org/2000/svg" viewBox="0 0 512 512">
  <!-- Orange background circle -->
  <circle cx="256" cy="256" r="256" fill="#f97316"/>
  
  <!-- Outer blue circle border -->
  <circle cx="256" cy="256" r="240" fill="none" stroke="#5cb8e6" stroke-width="16"/>
  
  <!-- Curved text paths -->
  <defs>
    <path id="topArcLeft" d="M 75,220 A 190,190 0 0,1 220,65" fill="none"/>
    <path id="topArcRight" d="M 292,65 A 190,190 0 0,1 437,220" fill="none"/>
    <path id="bottomArc" d="M 90,360 A 175,175 0 0,0 422,360" fill="none"/>
  </defs>
  
  <!-- "BOW" curved top left -->
  <text fill="white" font-family="Arial Black, sans-serif" font-size="58" font-weight="900" letter-spacing="2">
    <textPath href="#topArcLeft" startOffset="5%">BOW</textPath>
  </text>
  
  <!-- "WOW" curved top right -->
  <text fill="white" font-family="Arial Black, sans-serif" font-size="58" font-weight="900" letter-spacing="2">
    <textPath href="#topArcRight" startOffset="5%">WOW</textPath>
  </text>
  
  <!-- "MEOW" curved bottom -->
  <text fill="white" font-family="Arial Black, sans-serif" font-size="58" font-weight="900" letter-spacing="4">
    <textPath href="#bottomArc" startOffset="20%">MEOW</textPath>
  </text>
  
  <!-- Dog Face - OUTLINE ONLY - centered -->
  <g transform="translate(256, 245)" fill="none" stroke="#5cb8e6" stroke-width="10" stroke-linecap="round" stroke-linejoin="round">
    <!-- Left ear - floppy loop going up then curving down -->
    <path d="M -50,-20 C -70,-55 -100,-45 -100,-10 C -100,30 -75,50 -50,35"/>
    
    <!-- Right ear - floppy loop going up then curving down -->  
    <path d="M 50,-20 C 70,-55 100,-45 100,-10 C 100,30 75,50 50,35"/>
    
    <!-- Main face outline - rounded head shape -->
    <ellipse cx="0" cy="15" rx="60" ry="50"/>
  </g>
  
  <!-- Orange spots/cheeks -->
  <circle cx="212" cy="268" r="16" fill="#f97316"/>
  <circle cx="300" cy="268" r="16" fill="#f97316"/>
  
  <!-- Eyes - solid black dots -->
  <circle cx="232" cy="250" r="7" fill="#000"/>
  <circle cx="280" cy="250" r="7" fill="#000"/>
  
  <!-- Nose - solid black inverted triangle -->
  <polygon points="256,262 246,280 266,280" fill="#000"/>
</svg>
